<svg xmlns="http://www.w3.org/2000/svg" height="48" width="48"><path d="M6.5 18.75q-.15-.1-.175-.3-.025-.2.075-.3 3.1-4.25 7.725-6.6Q18.75 9.2 23.95 9.2q5.25 0 9.95 2.275 4.7 2.275 7.85 6.575.15.2.075.4t-.275.4q-.15.1-.4.075-.25-.025-.4-.275-2.85-4.05-7.3-6.175Q29 10.35 23.95 10.3q-4.95 0-9.325 2.175Q10.25 14.65 7.35 18.65q-.25.25-.475.275-.225.025-.375-.175Zm23.25 24.9q-4.9-1.25-8.2-5.075-3.3-3.825-3.3-9.225 0-2.35 1.7-3.925 1.7-1.575 4.1-1.575 2.35 0 4.025 1.575Q29.75 27 29.75 29.35q0 1.9 1.4 3.125t3.3 1.225q1.95 0 3.275-1.25t1.325-3.1q0-6.05-4.425-10.15Q30.2 15.1 24 15.1q-6.25 0-10.675 4.1Q8.9 23.3 8.9 29.3q0 1.25.325 3.1t1.125 4.3q.1.25.025.425-.075.175-.325.275-.25.15-.45.075t-.3-.375q-.75-2.05-1.125-3.925T7.8 29.35q0-6.45 4.8-10.95 4.8-4.5 11.35-4.5 6.65 0 11.45 4.5 4.8 4.5 4.8 10.95 0 2.3-1.7 3.875-1.7 1.575-4.05 1.575-2.35 0-4.075-1.575T28.65 29.35q0-1.9-1.35-3.15t-3.25-1.25q-1.95 0-3.325 1.25-1.375 1.25-1.375 3.15 0 5.05 3.05 8.475t7.65 4.725q.3.15.4.3.1.15.1.4-.1.25-.3.4-.2.15-.5 0ZM12.45 8.3q-.1.05-.3 0-.2-.05-.25-.25 0-.1-.025-.325T12 7.35q2.75-1.5 5.825-2.3 3.075-.8 6.225-.8 3.15 0 6.15.75 3 .75 5.8 2.25.3.2.375.425.075.225.025.375-.15.2-.325.3-.175.1-.425-.05Q33 6.8 30.075 6.075 27.15 5.35 24.05 5.35q-3.05 0-5.95.775-2.9.775-5.65 2.175Zm6.65 34.8q-2.8-3-4.4-6.25-1.6-3.25-1.6-7.5 0-4.4 3.25-7.425 3.25-3.025 7.7-3.025 4.5 0 7.725 3.025Q35 24.95 35 29.35q0 .25-.15.4-.15.15-.4.15-.15 0-.35-.15-.2-.15-.2-.4 0-4-2.875-6.675T24.05 20Q20 20 17.1 22.675q-2.9 2.675-2.9 6.675 0 4.2 1.475 7.1 1.475 2.9 4.225 5.85.25.3.175.5-.075.2-.175.3-.15.2-.375.225-.225.025-.425-.225Zm14.95-3.6q-4.3 0-7.475-2.9T23.4 29.35q0-.25.15-.4.15-.15.4-.15t.4.15q.15.15.15.4 0 4.05 2.85 6.55t6.7 2.5q.55 0 1.125-.05t1.125-.15q.15 0 .3.1t.2.35q.1.25-.05.4-.15.15-.4.15-.4.2-1.025.25-.625.05-1.275.05Z" fill="rgba(128, 128, 128, 0.192)"/></svg>